<?xml version="1.0" encoding="utf-8"?>
<!-- Generator: Adobe Illustrator 23.1.1, SVG Export Plug-In . SVG Version: 6.00 Build 0)  -->
<svg version="1.1" id="Layer_1" xmlns="http://www.w3.org/2000/svg" xmlns:xlink="http://www.w3.org/1999/xlink" x="0px" y="0px"
	 viewBox="0 0 32 32" style="enable-background:new 0 0 32 32;" xml:space="preserve">
<style type="text/css">
	.st0{opacity:0.7;fill:#6D6E70;enable-background:new    ;}
</style>
<path class="st0" d="M16,0c8.8,0,16,7.2,16,16s-7.2,16-16,16S0,24.8,0,16S7.2,0,16,0z M16,29.1c7.2,0,13.1-5.9,13.1-13.1
	c0-7.2-5.9-13.1-13.1-13.1C8.8,2.9,2.9,8.8,2.9,16S8.8,29.1,16,29.1z M22,10.1l2.5,2.5l-10,9.7l-6.3-6.2l2.1-2.1l4,4L22,10.1z"/>
</svg>
