<svg xmlns="http://www.w3.org/2000/svg" viewBox="0 0 523.75 272.16"><defs><style>.cls-1{opacity:0.26;}.cls-2,.cls-4{fill:#fff;}.cls-2,.cls-3,.cls-4,.cls-5{stroke:#fff;stroke-miterlimit:10;opacity:0.27;}.cls-3,.cls-5{fill:none;}.cls-4,.cls-5{stroke-width:0.5px;}</style></defs><g id="white" class="cls-1"><circle class="cls-2" cx="122.99" cy="42.4" r="8.16"/><circle class="cls-2" cx="192.61" cy="126.6" r="4.17"/><circle class="cls-2" cx="258.06" cy="32.33" r="5.73"/><circle class="cls-2" cx="355.46" cy="138.76" r="7.99"/><circle class="cls-2" cx="459.62" cy="48.13" r="10.07"/><circle class="cls-2" cx="504.76" cy="142.23" r="4.51"/><circle class="cls-2" cx="99.56" cy="202.3" r="5.56"/><circle class="cls-2" cx="227.16" cy="173.65" r="3.3"/><circle class="cls-2" cx="282.54" cy="232.51" r="5.21"/><circle class="cls-2" cx="310.15" cy="88.58" r="4.34"/><circle class="cls-2" cx="401.64" cy="225.91" r="10.42"/><circle class="cls-2" cx="443.31" cy="99.17" r="6.25"/><circle class="cls-2" cx="496.08" cy="99.17" r="6.25"/><circle class="cls-2" cx="474.9" cy="210.29" r="5.21"/><circle class="cls-2" cx="508.93" cy="198.13" r="4.17"/><circle class="cls-2" cx="40.61" cy="97" r="8.42"/><circle class="cls-2" cx="18.13" cy="14.63" r="2.6"/><circle class="cls-2" cx="32.89" cy="225.91" r="4.86"/><line class="cls-3" x1="40.61" y1="97" x2="32.89" y2="225.91"/><line class="cls-3" x1="99.56" y1="202.3" x2="40.61" y2="97"/><line class="cls-3" x1="18.13" y1="14.63" x2="40.61" y2="97"/><line class="cls-3" x1="122.99" y1="42.4" x2="40.61" y2="97"/><line class="cls-3" x1="192.61" y1="126.6" x2="122.99" y2="42.4"/><line class="cls-3" x1="99.56" y1="202.3" x2="192.61" y2="126.6"/><line class="cls-3" x1="227.16" y1="173.65" x2="192.61" y2="126.6"/><line class="cls-3" x1="258.06" y1="32.33" x2="192.61" y2="126.6"/><line class="cls-3" x1="227.16" y1="173.65" x2="282.54" y2="232.51"/><line class="cls-3" x1="99.56" y1="202.3" x2="282.54" y2="232.51"/><line class="cls-3" x1="227.16" y1="173.65" x2="310.15" y2="88.58"/><line class="cls-3" x1="258.06" y1="32.33" x2="310.15" y2="88.58"/><line class="cls-3" x1="355.46" y1="138.76" x2="310.15" y2="88.58"/><line class="cls-3" x1="282.54" y1="232.51" x2="355.46" y2="138.76"/><line class="cls-3" x1="401.64" y1="225.91" x2="355.46" y2="138.76"/><line class="cls-3" x1="474.9" y1="210.29" x2="401.64" y2="225.91"/><line class="cls-3" x1="355.46" y1="138.76" x2="474.9" y2="210.29"/><line class="cls-3" x1="509.28" y1="198.13" x2="474.9" y2="210.29"/><line class="cls-3" x1="504.76" y1="142.23" x2="509.28" y2="199.28"/><line class="cls-3" x1="474.9" y1="210.29" x2="504.76" y2="142.23"/><line class="cls-3" x1="443.31" y1="99.17" x2="474.9" y2="210.29"/><line class="cls-3" x1="459.62" y1="48.13" x2="443.31" y2="99.17"/><line class="cls-3" x1="496.08" y1="99.17" x2="459.62" y2="48.13"/><line class="cls-3" x1="443.31" y1="99.17" x2="496.08" y2="99.17"/><circle class="cls-2" cx="126.23" cy="110.56" r="1.52"/><circle class="cls-2" cx="95.23" cy="142.15" r="1.23"/><circle class="cls-2" cx="132.5" cy="156.24" r="1.34"/><circle class="cls-4" cx="199.58" cy="179.75" r="2.8"/><circle class="cls-2" cx="131.11" cy="228.69" r="1.39"/><circle class="cls-2" cx="58.87" cy="215.17" r="2.23"/><line class="cls-5" x1="126.23" y1="110.56" x2="132.5" y2="156.24"/><line class="cls-5" x1="95.23" y1="142.15" x2="132.5" y2="156.24"/><line class="cls-5" x1="126.23" y1="110.56" x2="99.56" y2="202.61"/><line class="cls-5" x1="58.87" y1="215.17" x2="99.56" y2="202.3"/><line class="cls-5" x1="131.11" y1="228.69" x2="100.02" y2="202.3"/><line class="cls-5" x1="58.87" y1="215.17" x2="131.11" y2="228.69"/><line class="cls-5" x1="199.58" y1="179.75" x2="126.23" y2="110.56"/><line class="cls-5" x1="227.16" y1="173.65" x2="199.58" y2="179.75"/><line class="cls-5" x1="192.61" y1="126.6" x2="199.58" y2="179.75"/><line class="cls-4" x1="282.54" y1="232.51" x2="199.58" y2="179.75"/><circle class="cls-4" cx="300.76" cy="166.35" r="1.9"/><circle class="cls-4" cx="343.7" cy="205.08" r="2.78"/><circle class="cls-4" cx="407.3" cy="188.29" r="2.66"/><circle class="cls-4" cx="399" cy="101.81" r="2.64"/><circle class="cls-4" cx="349.93" cy="72.16" r="2.46"/><circle class="cls-4" cx="362.38" cy="95.94" r="1.07"/><circle class="cls-4" cx="477.12" cy="139.94" r="2.22"/><circle class="cls-4" cx="249.13" cy="81.99" r="2.52"/><circle class="cls-4" cx="251.99" cy="114.95" r="2.86"/><line class="cls-5" x1="249.13" y1="81.99" x2="251.99" y2="114.95"/><line class="cls-5" x1="300.76" y1="166.35" x2="249.13" y2="81.99"/><line class="cls-5" x1="251.99" y1="114.95" x2="362.38" y2="95.94"/><line class="cls-5" x1="343.7" y1="205.08" x2="300.76" y2="166.35"/><line class="cls-5" x1="407.3" y1="188.29" x2="343.7" y2="205.08"/><line class="cls-5" x1="300.76" y1="166.35" x2="407.3" y2="188.29"/><line class="cls-5" x1="399" y1="101.81" x2="407.3" y2="188.29"/><line class="cls-5" x1="349.93" y1="72.16" x2="362.38" y2="95.94"/><line class="cls-5" x1="399" y1="101.81" x2="362.38" y2="95.94"/><line class="cls-5" x1="477.12" y1="139.94" x2="407.3" y2="188.29"/><line class="cls-5" x1="401.64" y1="225.91" x2="407.3" y2="188.29"/><line class="cls-5" x1="474.9" y1="210.29" x2="407.3" y2="188.29"/><line class="cls-5" x1="477.12" y1="139.94" x2="443.31" y2="99.17"/></g></svg>