<?xml version="1.0" encoding="utf-8"?>
<!-- Generator: Adobe Illustrator 23.1.1, SVG Export Plug-In . SVG Version: 6.00 Build 0)  -->
<svg version="1.1" baseProfile="tiny" id="Layer_1" xmlns="http://www.w3.org/2000/svg" xmlns:xlink="http://www.w3.org/1999/xlink"
	 x="0px" y="0px" viewBox="0 0 154 156" xml:space="preserve">
<circle fill="#FFFFFF" stroke="#8AC53F" stroke-width="6" stroke-miterlimit="10" cx="77" cy="78" r="72.5"/>
<g>
	<g>
		<path fill="#8AC53F" d="M111.54,112.34l-7.58,6.4c-0.46-0.65-2.96-3.98-7.48-9.97S85.82,94.73,78.07,84.63h-0.12
			c-6.64,8.34-12.61,15.96-17.93,22.87c-5.31,6.91-8.14,10.62-8.49,11.12l-7-5.82c0.27-0.31,2.58-3.1,6.94-8.38
			c4.36-5.28,11.39-13.99,21.11-26.13v-0.12c-4.65-6.07-10.06-13.05-16.24-20.94c-6.18-7.89-9.56-12.19-10.14-12.88l7.58-5.65
			c0.5,0.69,3.13,4.15,7.88,10.37c4.76,6.22,10.36,13.52,16.8,21.89h0.12C84,64.02,89.43,57.03,94.88,50
			c5.45-7.03,8.36-10.79,8.75-11.29l6.88,5.07c-0.38,0.5-3.96,4.99-10.74,13.48c-6.78,8.49-12.18,15.19-16.21,20.11v0.12
			c6.83,8.49,13.12,16.31,18.86,23.45C108.16,108.08,111.2,111.88,111.54,112.34z"/>
	</g>
</g>
<polygon fill="none" points="42.64,59.56 50.33,59.56 50.33,59.56 42.64,59.56 "/>
</svg>
