<?xml version="1.0" encoding="utf-8"?>
<!-- Generator: Adobe Illustrator 23.1.1, SVG Export Plug-In . SVG Version: 6.00 Build 0)  -->
<svg version="1.1" id="Layer_1" xmlns="http://www.w3.org/2000/svg" xmlns:xlink="http://www.w3.org/1999/xlink" x="0px" y="0px"
	 viewBox="0 0 112.5 112.5" style="enable-background:new 0 0 112.5 112.5;" xml:space="preserve">
<style type="text/css">
	.st0{fill:#FFFFFF;}
</style>
<g id="a25MBM.tif">
	<g>
		<circle cx="56.3" cy="56.3" r="56.3"/>
		<path d="M58.8,107.5c-2.3,0-4.7,0-7,0c-1.2-0.2-2.4-0.4-3.7-0.5C27.2,103.9,10.3,88.7,5,68.2c-0.8-3-1.2-6-1.7-9
			c0-2.9,0-5.9,0-8.8c0.2-1,0.4-2,0.5-2.9C8.1,20,32.9,0.8,60.7,3.3c21.3,1.9,39.5,16.8,45.3,37.4c1.1,3.8,1.5,7.7,2.2,11.5
			c0,2.3,0,4.6,0,7c-0.1,0.6-0.3,1.2-0.4,1.7c-3,21.6-14.9,36.1-35.3,43.6C68.2,106.2,63.4,106.6,58.8,107.5z M70.9,24
			c1.3,2.3,4.2,12.3,4.3,13.4c0.1,2.9,0.2,5.9,0.2,8.8c0,2-0.3,4,1.4,5.6c0.4,0.4,0.7,1.4,0.6,1.9c-0.7,2.8-1.4,5.7-2.3,8.5
			c-0.3,1-1.5,1.7-1.6,2.7c-0.2,4-2.2,7-4.7,9.8c-0.4,0.5-0.9,1.2-0.9,1.7c0.3,4.7,3.8,9.2,8.3,10.7c2.7,0.9,5.4,1.8,8.1,2.7
			c1,0.4,1.9,0.9,2.9,1.4c13.7-11.2,20.9-31.6,14-51.6C94.7,20.4,76.1,7.2,55.7,7.2c-20.6,0-39,13.4-45.7,32.8
			c-6.5,19.2,0.5,40.2,14,51c3.5-1.2,6.6-2.7,9.9-3.4c5.7-1.2,8.2-5.1,9.4-10.2c0.2-0.8-0.2-2.1-0.7-2.8c-2.4-2.8-4.4-5.8-4.6-9.6
			c0-0.4-0.1-1-0.4-1.3c-2.6-2.4-2.8-5.8-3.4-8.9c-0.2-1-0.1-2.4,0.5-3.1c1.4-1.5,1.3-3.2,1.3-5c0-2.3,0-4.6,0-7
			c0.2-9.1,7.9-18,16.7-19.1c4.8-0.6,9.7-0.3,14,2.4"/>
		<path class="st0" d="M24,91.1c-13.5-10.8-20.5-31.8-14-51C16.6,20.6,35.1,7.3,55.6,7.2c20.5,0,39,13.2,45.6,32.5
			c6.8,20-0.3,40.4-14,51.6c-1-0.5-1.9-1.1-2.9-1.4c-2.7-1-5.4-1.8-8.1-2.7c-4.5-1.5-8-5.9-8.3-10.7c0-0.6,0.4-1.3,0.9-1.7
			c2.5-2.8,4.5-5.8,4.7-9.8c0.1-0.9,1.3-1.7,1.6-2.7c0.9-2.8,1.6-5.6,2.3-8.5c0.1-0.6-0.1-1.5-0.6-1.9c-1.7-1.6-1.3-3.7-1.4-5.6
			c-0.1-2.9-0.1-5.9-0.2-8.8c0-1.1-1.4-6.7-1.9-7.5c-2.4-3.8-2.4-4.2-6.5-6.8c-4.3-2.7-9.1-3-14-2.4c-8.8,1.1-16.5,10-16.7,19.1
			c0,2.3,0,4.6,0,7c0,1.8,0.1,3.5-1.3,5c-0.6,0.7-0.7,2.1-0.5,3.1c0.6,3.1,0.8,6.5,3.4,8.9C37.9,64,38,64.6,38,65
			c0.1,3.9,2.1,6.8,4.6,9.6c0.6,0.7,0.9,1.9,0.7,2.8c-1.2,5.1-3.7,9-9.4,10.2C30.6,88.4,27.4,89.9,24,91.1z"/>
	</g>
</g>
</svg>
