<?xml version="1.0" encoding="utf-8"?>
<!-- Generator: Adobe Illustrator 25.1.0, SVG Export Plug-In . SVG Version: 6.00 Build 0)  -->
<svg version="1.1" xmlns="http://www.w3.org/2000/svg" xmlns:xlink="http://www.w3.org/1999/xlink" x="0px" y="0px"
	 viewBox="0 0 523.7 272.2" style="enable-background:new 0 0 523.7 272.2;" xml:space="preserve">
<style type="text/css">
	.st0{display:none;}
	.st1{display:inline;stroke:#FFFFFF;stroke-miterlimit:10;}
	.st2{opacity:0.36;}
	.st3{opacity:0.36;fill:#FFFFFF;stroke:#FFFFFF;stroke-miterlimit:10;}
	.st4{opacity:0.36;fill:none;stroke:#FFFFFF;stroke-miterlimit:10;}
	.st5{opacity:0.36;fill:#FFFFFF;stroke:#FFFFFF;stroke-width:0.5;stroke-miterlimit:10;}
	.st6{opacity:0.36;fill:none;stroke:#FFFFFF;stroke-width:0.5;stroke-miterlimit:10;}
</style>
<g id="Layer_1" class="st0">
	<rect x="11.4" y="-231" class="st1" width="512.4" height="468.8"/>
</g>
<g id="white" class="st2">
	<circle class="st3" cx="123" cy="42.4" r="8.2"/>
	<circle class="st3" cx="192.6" cy="126.6" r="4.2"/>
	<circle class="st3" cx="258.1" cy="32.3" r="5.7"/>
	<circle class="st3" cx="355.5" cy="138.8" r="8"/>
	<circle class="st3" cx="459.6" cy="48.1" r="10.1"/>
	<circle class="st3" cx="504.8" cy="142.2" r="4.5"/>
	<circle class="st3" cx="99.6" cy="202.3" r="5.6"/>
	<circle class="st3" cx="227.2" cy="173.7" r="3.3"/>
	<circle class="st3" cx="282.5" cy="232.5" r="5.2"/>
	<circle class="st3" cx="310.1" cy="88.6" r="4.3"/>
	<circle class="st3" cx="401.6" cy="225.9" r="10.4"/>
	<circle class="st3" cx="443.3" cy="99.2" r="6.2"/>
	<circle class="st3" cx="496.1" cy="99.2" r="6.2"/>
	<circle class="st3" cx="474.9" cy="210.3" r="5.2"/>
	<circle class="st3" cx="508.9" cy="198.1" r="4.2"/>
	<circle class="st3" cx="40.6" cy="97" r="8.4"/>
	<circle class="st3" cx="18.1" cy="14.6" r="2.6"/>
	<circle class="st3" cx="32.9" cy="225.9" r="4.9"/>
	<line class="st4" x1="40.6" y1="97" x2="32.9" y2="225.9"/>
	<line class="st4" x1="99.6" y1="202.3" x2="40.6" y2="97"/>
	<line class="st4" x1="18.1" y1="14.6" x2="40.6" y2="97"/>
	<line class="st4" x1="123" y1="42.4" x2="40.6" y2="97"/>
	<line class="st4" x1="192.6" y1="126.6" x2="123" y2="42.4"/>
	<line class="st4" x1="99.6" y1="202.3" x2="192.6" y2="126.6"/>
	<line class="st4" x1="227.2" y1="173.7" x2="192.6" y2="126.6"/>
	<line class="st4" x1="258.1" y1="32.3" x2="192.6" y2="126.6"/>
	<line class="st4" x1="227.2" y1="173.7" x2="282.5" y2="232.5"/>
	<line class="st4" x1="99.6" y1="202.3" x2="282.5" y2="232.5"/>
	<line class="st4" x1="227.2" y1="173.7" x2="310.1" y2="88.6"/>
	<line class="st4" x1="258.1" y1="32.3" x2="310.1" y2="88.6"/>
	<line class="st4" x1="355.5" y1="138.8" x2="310.1" y2="88.6"/>
	<line class="st4" x1="282.5" y1="232.5" x2="355.5" y2="138.8"/>
	<line class="st4" x1="401.6" y1="225.9" x2="355.5" y2="138.8"/>
	<line class="st4" x1="474.9" y1="210.3" x2="401.6" y2="225.9"/>
	<line class="st4" x1="355.5" y1="138.8" x2="474.9" y2="210.3"/>
	<line class="st4" x1="509.3" y1="198.1" x2="474.9" y2="210.3"/>
	<line class="st4" x1="504.8" y1="142.2" x2="509.3" y2="199.3"/>
	<line class="st4" x1="474.9" y1="210.3" x2="504.8" y2="142.2"/>
	<line class="st4" x1="443.3" y1="99.2" x2="474.9" y2="210.3"/>
	<line class="st4" x1="459.6" y1="48.1" x2="443.3" y2="99.2"/>
	<line class="st4" x1="496.1" y1="99.2" x2="459.6" y2="48.1"/>
	<line class="st4" x1="443.3" y1="99.2" x2="496.1" y2="99.2"/>
	<circle class="st3" cx="126.2" cy="110.6" r="1.5"/>
	<circle class="st3" cx="95.2" cy="142.2" r="1.2"/>
	<circle class="st3" cx="132.5" cy="156.2" r="1.3"/>
	<circle class="st5" cx="199.6" cy="179.8" r="2.8"/>
	<circle class="st3" cx="131.1" cy="228.7" r="1.4"/>
	<circle class="st3" cx="58.9" cy="215.2" r="2.2"/>
	<line class="st6" x1="126.2" y1="110.6" x2="132.5" y2="156.2"/>
	<line class="st6" x1="95.2" y1="142.2" x2="132.5" y2="156.2"/>
	<line class="st6" x1="126.2" y1="110.6" x2="99.6" y2="202.6"/>
	<line class="st6" x1="58.9" y1="215.2" x2="99.6" y2="202.3"/>
	<line class="st6" x1="131.1" y1="228.7" x2="100" y2="202.3"/>
	<line class="st6" x1="58.9" y1="215.2" x2="131.1" y2="228.7"/>
	<line class="st6" x1="199.6" y1="179.8" x2="126.2" y2="110.6"/>
	<line class="st6" x1="227.2" y1="173.7" x2="199.6" y2="179.8"/>
	<line class="st6" x1="192.6" y1="126.6" x2="199.6" y2="179.8"/>
	<line class="st5" x1="282.5" y1="232.5" x2="199.6" y2="179.8"/>
	<circle class="st5" cx="300.8" cy="166.3" r="1.9"/>
	<circle class="st5" cx="343.7" cy="205.1" r="2.8"/>
	<circle class="st5" cx="407.3" cy="188.3" r="2.7"/>
	<circle class="st5" cx="399" cy="101.8" r="2.6"/>
	<circle class="st5" cx="349.9" cy="72.2" r="2.5"/>
	<circle class="st5" cx="362.4" cy="95.9" r="1.1"/>
	<circle class="st5" cx="477.1" cy="139.9" r="2.2"/>
	<circle class="st5" cx="249.1" cy="82" r="2.5"/>
	<circle class="st5" cx="252" cy="114.9" r="2.9"/>
	<line class="st6" x1="249.1" y1="82" x2="252" y2="114.9"/>
	<line class="st6" x1="300.8" y1="166.3" x2="249.1" y2="82"/>
	<line class="st6" x1="252" y1="114.9" x2="362.4" y2="95.9"/>
	<line class="st6" x1="343.7" y1="205.1" x2="300.8" y2="166.3"/>
	<line class="st6" x1="407.3" y1="188.3" x2="343.7" y2="205.1"/>
	<line class="st6" x1="300.8" y1="166.3" x2="407.3" y2="188.3"/>
	<line class="st6" x1="399" y1="101.8" x2="407.3" y2="188.3"/>
	<line class="st6" x1="349.9" y1="72.2" x2="362.4" y2="95.9"/>
	<line class="st6" x1="399" y1="101.8" x2="362.4" y2="95.9"/>
	<line class="st6" x1="477.1" y1="139.9" x2="407.3" y2="188.3"/>
	<line class="st6" x1="401.6" y1="225.9" x2="407.3" y2="188.3"/>
	<line class="st6" x1="474.9" y1="210.3" x2="407.3" y2="188.3"/>
	<line class="st6" x1="477.1" y1="139.9" x2="443.3" y2="99.2"/>
</g>
</svg>
