<?xml version="1.0" encoding="utf-8"?>
<!-- Generator: Adobe Illustrator 23.1.1, SVG Export Plug-In . SVG Version: 6.00 Build 0)  -->
<svg version="1.1" baseProfile="tiny" id="Layer_1" xmlns="http://www.w3.org/2000/svg" xmlns:xlink="http://www.w3.org/1999/xlink"
	 x="0px" y="0px" viewBox="0 0 16 16" xml:space="preserve">
<path fill="#FFFFFF" d="M8,0C3.58,0,0,3.58,0,8s3.58,8,8,8s8-3.58,8-8C15.99,3.59,12.41,0.01,8,0z M7.84,12.42
	c-0.56,0-1.01-0.46-1-1.02c0-0.56,0.46-1.01,1.02-1c0.55,0,1,0.46,1,1.01C8.86,11.97,8.4,12.42,7.84,12.42z M9.45,8.51
	C9.27,8.67,9.09,8.82,8.91,8.98C8.88,9,8.86,9.04,8.86,9.08c0,0.24,0,0.48,0,0.72c0,0.03,0,0.05,0,0.09c-0.67,0-1.34,0-2.02,0
	c0-0.03,0-0.06,0-0.09c0-0.54,0-1.09,0-1.63c0-0.06,0.02-0.11,0.07-0.15C7.35,7.65,7.78,7.28,8.22,6.9C8.45,6.71,8.51,6.45,8.4,6.19
	C8.29,5.92,8.02,5.78,7.71,5.84c-0.26,0.05-0.46,0.3-0.47,0.58c0,0.09,0,0.17,0,0.26c-0.67,0-1.34,0-2.03,0
	c0.01-0.21,0-0.42,0.03-0.62c0.13-0.85,0.58-1.49,1.32-1.92c0.31-0.18,0.66-0.29,1.02-0.32c0.02,0,0.04-0.01,0.06-0.01
	c0.13,0,0.27,0,0.4,0c0.16,0.03,0.33,0.05,0.49,0.1c1,0.27,1.77,1.14,1.9,2.17C10.57,7.06,10.21,7.87,9.45,8.51z"/>
</svg>
